<?xml version="1.0" encoding="UTF-8" standalone="no"?>
<!-- Created with Inkscape (http://www.inkscape.org/) -->

<svg
   xmlns:dc="http://purl.org/dc/elements/1.1/"
   xmlns:cc="http://creativecommons.org/ns#"
   xmlns:rdf="http://www.w3.org/1999/02/22-rdf-syntax-ns#"
   xmlns:svg="http://www.w3.org/2000/svg"
   xmlns="http://www.w3.org/2000/svg"
   xmlns:sodipodi="http://sodipodi.sourceforge.net/DTD/sodipodi-0.dtd"
   xmlns:inkscape="http://www.inkscape.org/namespaces/inkscape"
   width="1024"
   height="768"
   id="svg2"
   version="1.1"
   inkscape:version="0.48.3.1 r9886"
   sodipodi:docname="The Rivers of the Sheep King.svg">
  <defs
     id="defs4">
    <inkscape:path-effect
       effect="skeletal"
       id="path-effect4731"
       is_visible="true"
       pattern="M 270.5,7 1,0.5 0.5,14.5 z"
       copytype="single_stretched"
       prop_scale="1"
       scale_y_rel="false"
       spacing="0"
       normal_offset="0"
       tang_offset="0"
       prop_units="false"
       vertical_pattern="false"
       fuse_tolerance="0" />
    <inkscape:path-effect
       effect="skeletal"
       id="path-effect4720"
       is_visible="true"
       pattern="M 270.5,7 1,0.5 0.5,14.5 z"
       copytype="single_stretched"
       prop_scale="1"
       scale_y_rel="false"
       spacing="0"
       normal_offset="0"
       tang_offset="0"
       prop_units="false"
       vertical_pattern="false"
       fuse_tolerance="0" />
    <inkscape:path-effect
       effect="skeletal"
       id="path-effect4709"
       is_visible="true"
       pattern="M 270.5,7 1,0.5 0.5,14.5 z"
       copytype="single_stretched"
       prop_scale="1"
       scale_y_rel="false"
       spacing="0"
       normal_offset="0"
       tang_offset="0"
       prop_units="false"
       vertical_pattern="false"
       fuse_tolerance="0" />
    <inkscape:path-effect
       effect="skeletal"
       id="path-effect4697"
       is_visible="true"
       pattern="M 270.5,7 1,0.5 0.5,14.5 z"
       copytype="single_stretched"
       prop_scale="0.25"
       scale_y_rel="false"
       spacing="0"
       normal_offset="0"
       tang_offset="0"
       prop_units="false"
       vertical_pattern="false"
       fuse_tolerance="0" />
    <inkscape:path-effect
       effect="skeletal"
       id="path-effect4661"
       is_visible="true"
       pattern="M 270.5,7 1,0.5 0.5,14.5 z"
       copytype="single_stretched"
       prop_scale="1"
       scale_y_rel="false"
       spacing="0"
       normal_offset="0"
       tang_offset="0"
       prop_units="false"
       vertical_pattern="false"
       fuse_tolerance="25" />
    <inkscape:path-effect
       effect="skeletal"
       id="path-effect4651"
       is_visible="true"
       pattern="M 270.5,7 1,0.5 0.5,14.5 z"
       copytype="single_stretched"
       prop_scale="1"
       scale_y_rel="false"
       spacing="0"
       normal_offset="0"
       tang_offset="0"
       prop_units="false"
       vertical_pattern="false"
       fuse_tolerance="0" />
    <inkscape:path-effect
       effect="skeletal"
       id="path-effect4625"
       is_visible="true"
       pattern="M 270.5,7 1,0.5 0.5,14.5 z"
       copytype="single_stretched"
       prop_scale="0.5"
       scale_y_rel="false"
       spacing="0"
       normal_offset="0"
       tang_offset="0"
       prop_units="false"
       vertical_pattern="false"
       fuse_tolerance="0" />
    <inkscape:path-effect
       effect="skeletal"
       id="path-effect4583"
       is_visible="true"
       pattern="M 270.5,7 1,0.5 0.5,14.5 z"
       copytype="single_stretched"
       prop_scale="0.5"
       scale_y_rel="false"
       spacing="0"
       normal_offset="0"
       tang_offset="0"
       prop_units="false"
       vertical_pattern="false"
       fuse_tolerance="0" />
    <inkscape:path-effect
       effect="skeletal"
       id="path-effect4551"
       is_visible="true"
       pattern="M 270.5,7 1,0.5 0.5,14.5 z"
       copytype="single_stretched"
       prop_scale="0.5"
       scale_y_rel="false"
       spacing="0"
       normal_offset="0"
       tang_offset="0"
       prop_units="false"
       vertical_pattern="false"
       fuse_tolerance="0" />
    <inkscape:path-effect
       effect="skeletal"
       id="path-effect4518"
       is_visible="true"
       pattern="M 0,0 1,0"
       copytype="single_stretched"
       prop_scale="1"
       scale_y_rel="false"
       spacing="0"
       normal_offset="0"
       tang_offset="0"
       prop_units="false"
       vertical_pattern="false"
       fuse_tolerance="0" />
  </defs>
  <sodipodi:namedview
     id="base"
     pagecolor="#ffffff"
     bordercolor="#666666"
     borderopacity="1.0"
     inkscape:pageopacity="0.0"
     inkscape:pageshadow="2"
     inkscape:zoom="1"
     inkscape:cx="533.68969"
     inkscape:cy="347.69921"
     inkscape:document-units="px"
     inkscape:current-layer="layer2"
     showgrid="false"
     fit-margin-top="0"
     fit-margin-left="0"
     fit-margin-right="0"
     fit-margin-bottom="0"
     inkscape:window-width="1622"
     inkscape:window-height="991"
     inkscape:window-x="213"
     inkscape:window-y="60"
     inkscape:window-maximized="0" />
  <metadata
     id="metadata7">
    <rdf:RDF>
      <cc:Work
         rdf:about="">
        <dc:format>image/svg+xml</dc:format>
        <dc:type
           rdf:resource="http://purl.org/dc/dcmitype/StillImage" />
        <dc:title></dc:title>
      </cc:Work>
    </rdf:RDF>
  </metadata>
  <g
     inkscape:groupmode="layer"
     id="layer2"
     inkscape:label="Rivers">
    <path
       style="fill:#008080;fill-opacity:1;stroke:#008080;stroke-width:1px;stroke-linecap:butt;stroke-linejoin:miter;stroke-opacity:1"
       inkscape:path-effect="#path-effect4583"
       inkscape:original-d="m 295.01169,669 c -7.98926,-0.29541 -13.80208,3.45921 -20.93171,6.08851 C 269.73485,675.28705 265.46297,673.96558 264,671 c -2.90107,-0.80721 -6.50302,-1.24758 -10.58819,-1 -7.47011,0.005 -14.94697,-0.007 -22.41181,0 -4.47421,1.98426 -9.74048,0.57535 -14.58819,1 -5.4656,-0.004 -10.97198,0.006 -16.41181,0 -2.26942,-2.17664 -4.63939,-2.9129 -7,-7 -2.40707,-2.78668 -2.42529,-8.48895 -7,-10 -4.32207,-2.5796 -9.29453,-3.20919 -14.57216,-3 -7.5282,-0.69071 -16.87658,-0.92866 -22.42784,-4 -3.19093,-0.50052 -5.56991,-1.95925 -7.96751,-5.52341 C 137.25635,638.04334 139.73285,629.4708 136,625 c 0.27078,-4.57309 -0.17545,-8.89486 -1,-13 0.37565,-6.02847 -4.45582,-11.36022 -5.86742,-15.55492 -2.26892,-2.76862 -6.5323,-5.78371 -4.30507,-10.5394 L 124.22193,585.38266 123,585"
       id="path3067"
       d="m 122.92529,585.23858 c 0.39072,0.12508 0.78037,0.24957 1.16895,0.37347 0.17295,0.11597 0.34475,0.22934 0.51541,0.34011 -0.96615,1.96083 -0.77699,4.33416 0.37241,6.16555 1.06785,1.72754 2.57508,3.06315 3.76059,4.54322 0.83547,2.58925 2.35152,4.83032 3.49033,7.13187 1.28077,2.64373 2.31733,5.46961 2.08319,8.25377 0.81495,4.33913 1.18252,8.78765 0.91014,13.20834 0,0 0,0 10e-6,0 0.8469,1.08139 1.34339,2.47972 1.69024,3.93912 0.32307,1.4457 0.44341,2.97027 0.58334,4.5354 0.12737,1.49351 0.25774,3.05178 0.64425,4.62526 0.29506,1.35728 0.90697,2.75707 2.04348,3.85183 1.85884,2.95785 4.7913,5.34774 8.40769,5.97313 0,10e-6 1e-5,10e-6 1e-5,10e-6 3.35879,1.90075 7.12115,2.63337 10.68938,3.12163 4.06594,0.59425 8.12347,0.86687 12.10196,1.28569 4.94008,-0.0617 9.94599,0.58946 13.86795,3.04449 0.76589,0.26919 1.4792,0.76837 2.02965,1.38623 0.5118,0.59201 0.90401,1.39094 1.29779,2.27753 0.64665,1.63313 1.19577,3.80857 2.8094,5.8485 1e-5,0 1e-5,10e-6 1e-5,10e-6 0.97452,1.75272 2.26097,3.34647 3.83065,4.66184 0,0 1e-5,0 1e-5,1e-5 1.48811,1.15703 2.93754,2.05433 4.04167,3.02264 5.72369,0.16983 11.4741,0.3342 17.24994,0.52324 10e-6,0 10e-6,0 10e-6,0 2.21096,-0.17401 4.63507,0.11286 7.28154,0.19409 2.39922,0.16534 5.07997,0.0191 7.72574,-1.09119 7.34042,0.13008 14.66622,0.28361 21.9789,0.42457 3.02596,-0.39012 6.01372,-0.37525 8.73368,0.25279 0,0 10e-6,1e-5 10e-6,1e-5 1.03458,2.22635 2.81429,3.54586 4.62972,4.00617 0,0 1e-5,0 1e-5,0 2.59583,0.89505 5.28078,1.18124 7.84226,1.04509 3.80215,-1.32657 7.27813,-2.92976 10.67488,-4.0918 3.06922,-1.05386 6.18003,-1.73239 9.14511,-1.60664 0.15934,-2.32768 0.36401,-4.65526 0.61542,-6.98217 -4.28029,-0.0653 -8.35706,0.87786 -12.0643,2.32928 -3.45557,1.36797 -6.55573,3.00343 -9.61194,4.21392 -1.58928,0.0587 -3.13195,-0.0928 -4.43325,-0.65958 -1.45464,-0.76298 -2.79225,-1.54662 -3.31048,-2.46304 0,0 -10e-6,0 -10e-6,0 -4.12853,-1.26648 -8.32987,-1.75747 -12.39427,-1.70124 -7.62239,0.16558 -15.22884,0.30903 -22.81755,0.46638 -1.8238,0.87577 -4.15405,1.03554 -6.61596,1.10054 -2.32354,-0.0152 -4.86594,-0.2235 -7.57557,0.04 -5.18799,0.1845 -10.40626,0.3708 -15.65627,0.52879 -1.04109,-1.07364 -2.11905,-1.80666 -2.95858,-2.55649 0,0 0,0 0,0 -1.2955,-1.04354 -2.40422,-2.35162 -3.28673,-3.80791 0,0 -1e-5,0 -1e-5,0 -1.09622,-1.10597 -1.59795,-3.08065 -2.60095,-5.14289 -0.46895,-1.03397 -1.07355,-2.10513 -1.92362,-3.08365 -0.85859,-1.00446 -1.98367,-1.7578 -3.25526,-2.15918 -4.66907,-2.66477 -10.076,-3.23372 -15.17493,-2.89851 -3.99232,-0.30338 -7.94939,-0.44762 -11.84353,-0.90516 -3.64406,-0.45675 -7.25565,-1.01894 -10.32361,-2.66124 -1e-5,-1e-5 -1e-5,-1e-5 -1e-5,-1e-5 -3.07715,-0.4207 -5.80716,-2.52528 -7.69277,-5.15738 -0.86038,-0.72909 -1.38623,-1.87721 -1.75284,-3.07921 -0.39093,-1.37393 -0.55233,-2.8452 -0.73187,-4.3414 -0.18269,-1.55392 -0.36267,-3.144 -0.75793,-4.71181 0,0 0,-10e-6 0,-10e-6 -0.34651,-1.4154 -0.93517,-2.83636 -1.94266,-3.98972 -1e-5,0 -1e-5,0 -1e-5,-1e-5 0.21625,-4.30208 -0.23876,-8.63522 -1.16068,-12.88028 0,-10e-6 0,-10e-6 0,-10e-6 0.13294,-3.01175 -1.02063,-5.88807 -2.41778,-8.49954 -1.25602,-2.35798 -2.83448,-4.53357 -3.71893,-7.03031 0,0 0,0 0,-10e-6 -1.28139,-1.514 -2.82453,-2.80339 -3.92018,-4.47188 -1.17112,-1.77516 -1.44473,-4.09923 -0.5395,-6.03924 -0.1834,-0.12398 -0.36547,-0.24495 -0.54623,-0.36293 -0.39708,-0.11406 -0.79292,-0.22744 -1.18752,-0.34012 z"
       inkscape:connector-curvature="0" />
    <path
       style="fill:#008080;fill-opacity:1;stroke:#008080;stroke-width:1px;stroke-linecap:butt;stroke-linejoin:miter;stroke-opacity:1"
       inkscape:path-effect="#path-effect4551"
       inkscape:original-d="m 193,660 c -3.50194,-2.94551 -1.4675,-9.64182 -4,-12.50802 -0.51992,-5.09123 0.81127,-7.67834 2.05706,-11.93722 -0.018,-3.80935 0.97123,-6.71775 2.94294,-8.55476 -0.0152,-3.11804 2.95022,-3.41707 3,-6.50802 -0.0258,-6.16385 0.0391,-12.33533 0,-18.49198 -1.06127,-7.08949 -4.80088,-12.23103 -6.04203,-18.99494 0.36627,-8.04904 1.52751,-15.6922 6.04203,-22.00506 3.82103,-1.81791 3.87977,-8.13344 1,-12 0.003,-6.65566 -7.61395,-11.09407 -5.03177,-17.46651 C 193.07343,530.50079 191.73012,530.11987 191,530"
       id="path3069"
       d="m 190.9595,530.2467 c 0.4323,0.0842 0.85026,0.20611 1.19665,0.42199 0.31703,0.1944 0.57936,0.51669 0.50997,0.78982 -0.62748,1.45466 -0.76692,3.10417 -0.40975,4.65792 0.35237,1.54936 1.06494,2.968 1.80312,4.30825 0.7751,1.41903 1.59651,2.78447 2.21112,4.20408 0.63132,1.4831 1.06939,3.05131 1.05029,4.59617 0,0 0,0 0,10e-6 1.29822,1.86671 1.92198,4.22496 1.77107,6.49007 -0.26028,1.9069 -1.19002,3.87429 -2.75757,4.48998 0,0 0,0 0,1e-5 -4.82832,6.54495 -6.3896,14.92159 -6.97563,22.90898 1.16028,7.01187 4.89079,13.01665 5.57141,19.04669 -0.10828,6.09542 -0.3214,12.19644 -0.4445,18.31633 0.12923,0.29175 -0.38223,0.80809 -0.96591,1.54478 -1e-5,0 -1e-5,0 -1e-5,10e-6 -0.96231,0.77706 -1.738,2.12419 -1.77898,4.00182 -2.87547,2.54567 -3.79214,6.09379 -3.53029,9.13022 -0.54018,1.60856 -1.26766,3.3532 -1.80786,5.36601 0,10e-6 0,10e-6 0,10e-6 -0.47884,2.68847 -0.52308,5.45841 -0.1859,8.19083 0.27049,0.34749 0.45542,1.15418 0.78777,2.18402 0,0 1e-5,1e-5 1e-5,1e-5 0.16124,0.86817 0.19961,1.92835 0.30473,3.16208 0.0809,1.22103 0.24069,2.62898 0.67422,4.17629 0.37568,1.41705 1.16471,2.85947 2.43228,4.13438 1.70215,-1.58726 3.31763,-3.26839 4.83717,-5.04596 -0.24773,-0.0821 -0.48134,-0.54624 -0.74595,-1.13713 -0.28015,-0.71156 -0.40949,-1.67221 -0.57364,-2.80555 -0.13696,-1.09015 -0.26804,-2.36651 -0.57805,-3.78227 0,-10e-6 0,-10e-6 0,-10e-6 -0.0784,-0.95207 -0.553,-2.14252 -1.61888,-3.30273 -0.10036,-1.46825 0.0493,-2.97433 0.51952,-4.4085 0,0 0,0 0,0 0.34855,-1.82521 0.9962,-3.78145 1.55246,-5.94304 0.21106,-3.17022 0.6582,-6.30154 2.34129,-8.01323 -0.0555,-0.61047 0.51461,-1.5089 1.17401,-2.57367 1.01557,-1.1011 1.8809,-2.74746 2.0342,-4.84934 -0.19632,-6.20547 -0.30105,-12.42738 -0.509,-18.64955 -1.29879,-7.08016 -5.29467,-12.77131 -6.58232,-18.94054 0.0986,-7.47787 0.95325,-15.22862 5.1657,-21.39965 0,0 0,0 0,0 2.11521,-1.11665 3.0895,-3.48991 3.10405,-5.71778 0.0987,-2.4721 -0.70995,-4.95891 -2.23885,-6.89703 -0.0315,-1.62566 -0.54534,-3.19038 -1.264,-4.62655 -0.72127,-1.45061 -1.61785,-2.78557 -2.45554,-4.14961 -0.79348,-1.29346 -1.55566,-2.6253 -1.96333,-4.09764 0,0 0,-1e-5 0,-1e-5 -0.40952,-1.47731 -0.3597,-3.08562 0.18474,-4.5361 0.0416,-0.35865 -0.26145,-0.6974 -0.60856,-0.88275 -0.36875,-0.20139 -0.79522,-0.30063 -1.23126,-0.36212 z"
       inkscape:connector-curvature="0" />
    <path
       style="fill:#008080;stroke:#008080;stroke-width:1px;stroke-linecap:butt;stroke-linejoin:miter;stroke-opacity:1"
       inkscape:path-effect="#path-effect4625"
       inkscape:original-d="M 313.39573,624.89523 C 312.12825,621.01805 310.70447,619.561 308.5,618 c -2.55024,-1.50095 -7.47058,-3.26459 -11.5,-4.5 -5.14995,-1.33221 -10.88519,-1.11624 -15.5,-4.5 -4.3055,-1.14463 -7.04956,-4.26552 -7,-8.51603 0.21065,-5.38134 -0.64039,-11.19269 1,-15.98397 1.91389,-4.2603 3.65351,-8.59334 4,-13.5 1.60537,-4.38895 -5.00752,-6.27288 -9,-6.5 -2.85769,-2.39433 -8.28555,-1.9505 -11.01792,-4.98208 -1.76742,-4.85544 -1.7258,-8.49824 -7.98208,-9.01792 -3.07251,-1.86537 -7.28023,-0.99013 -10.5,-2.5 -4.22111,-0.86453 -5.82393,-5.2749 -7.5,-8.5 -2.09715,-3.41932 -2.95233,-7.35308 -4.5,-11 -1.56817,-3.48823 -2.91273,-8.19492 -3.5,-12.5"
       id="path4623"
       d="m 225.25229,516.03379 c 0.50389,4.33223 1.56109,8.62745 3.28366,12.66896 1.44858,3.62009 2.24577,7.6011 4.31956,11.16176 0.842,1.70999 1.58958,3.55319 2.74038,5.26405 0,10e-6 0,10e-6 0,10e-6 1.1523,1.76892 2.89775,3.26523 5.09994,3.78852 1.81975,0.8684 3.75115,1.07213 5.49077,1.27336 1.8512,0.28249 3.63853,0.54527 4.95625,1.40838 1.25197,0.16426 2.44637,0.41006 3.39329,0.95544 0.6199,0.35029 1.14598,0.89765 1.52199,1.52885 1.02288,1.64174 1.37401,3.8524 2.20668,6.16665 1.80928,1.96375 4.18145,2.88737 6.26188,3.51057 2.14292,0.70153 4.17515,1.12949 5.38336,2.22918 2.26087,0.24395 4.4766,0.76644 6.32667,1.80592 0,0 0,0 0,0 0.6971,0.44461 1.28818,0.85269 1.46209,1.30474 0.17598,0.34382 0.10439,0.96112 -0.0777,1.4982 -0.39193,4.4204 -2.18583,8.74672 -4.18301,13.0875 -1.01208,2.88045 -1.28853,5.81985 -1.34844,8.56861 0,0 0,0 0,0 -0.0736,2.85298 0.0347,5.58501 -0.12461,8.1651 -0.0658,5.30155 3.54489,9.70292 8.3596,11.03706 2.53545,1.9028 5.40926,2.91416 8.14473,3.43759 0,0 0,0 0,0 2.80135,0.61814 5.42434,0.92631 7.69027,1.58073 0,0 0,0 10e-6,0 2.03657,0.67118 4.04069,1.39161 5.99626,2.18714 1.6943,0.68893 3.25647,1.32707 4.53428,2.13648 1.58652,1.10422 2.69367,2.93163 3.30749,4.96166 2.22451,-0.69618 4.46671,-1.34708 6.72484,-1.95256 -1.19986,-3.35518 -3.37281,-6.40627 -6.42991,-8.57955 -2.00138,-1.11411 -3.99453,-1.88212 -5.85648,-2.5437 -2.19523,-0.78076 -4.40425,-1.46926 -6.61439,-2.09319 0,0 0,0 0,-10e-6 -2.9502,-0.68689 -5.71854,-0.91413 -8.21078,-1.35567 0,0 0,0 0,0 -2.6257,-0.54717 -5.09482,-1.25624 -6.98534,-2.58808 -2.93121,-0.71222 -5.75529,-3.35909 -5.7437,-6.10303 0.0466,-2.88277 -0.17723,-5.62696 -0.22152,-8.25873 0,0 0,0 0,-10e-6 -0.0326,-2.5098 0.0233,-4.91894 0.7146,-7.04543 1.85548,-4.28054 3.51269,-8.92494 3.76814,-13.88908 0.4663,-1.25587 0.3647,-2.71085 -0.39597,-3.99655 -0.78769,-1.23575 -1.85693,-2.04305 -2.90911,-2.54122 0,0 -10e-6,0 -10e-6,0 -2.16189,-1.1064 -4.54005,-1.53206 -6.84656,-1.55424 0,0 0,0 -10e-6,0 -1.828,-1.44395 -3.92736,-1.84594 -5.70982,-2.23458 -1.9204,-0.47576 -3.78862,-0.88744 -4.85013,-2.0775 -0.69722,-1.84939 -1.1444,-4.08023 -2.42726,-6.08454 -0.60495,-0.92666 -1.43822,-1.70218 -2.42964,-2.22131 -1.23163,-0.63378 -2.56029,-0.85659 -3.8251,-0.90886 -1.70789,-0.97492 -3.60484,-1.19189 -5.36672,-1.31771 -1.84956,-0.18049 -3.65551,-0.2699 -5.20061,-0.9639 0,0 0,0 0,-10e-6 -1.78578,-0.3008 -3.36725,-1.55137 -4.52031,-3.0738 0,0 -10e-6,-10e-6 -10e-6,-10e-6 -1.12999,-1.51956 -1.93907,-3.3058 -2.88751,-5.03214 -2.12458,-3.27928 -3.09732,-7.24016 -4.73279,-10.86299 -1.86797,-3.91491 -3.10312,-8.14069 -3.78925,-12.44806 z"
       inkscape:connector-curvature="0" />
    <path
       style="fill:#008080;stroke:#008080;stroke-width:1px;stroke-linecap:butt;stroke-linejoin:miter;stroke-opacity:1"
       inkscape:path-effect="#path-effect4651"
       inkscape:original-d="m 470.7141,701.56444 c 7.22683,3.00161 19.30464,11.46043 26.63931,11.69837 7.27028,1.48646 12.93312,3.0517 19.81864,5.66247 5.37123,1.12946 13.30452,2.75233 16.04366,5.66247 6.59661,3.29262 6.09529,4.48787 12.26868,7.54995 6.13859,0.67344 9.36289,4.75242 15.09991,5.66247 3.01877,2.82148 9.03545,3.65263 11.77471,6.63687 4.36857,2.87782 11.20379,5.05724 19.36886,7.5193 6.93359,2.59306 12.03509,4.19718 19.7329,3.77498 6.74645,-1.09511 13.56908,-1.65157 19.90437,-3.77498 11.01977,-0.57327 20.31994,-3.92047 31.24166,-4.71872 5.74615,0.11208 12.39351,-1.31908 15.94558,-3.77498 2.15076,-0.98502 4.98179,-2.77989 7.54995,-3.77498 8.25258,-3.54427 16.27905,-7.77644 25.48111,-10.38119 7.7193,-3.47248 17.16813,-3.79089 25.4811,-6.60621 4.86768,-4.59986 12.94288,-5.62531 19.81864,-8.4937 3.06645,-1.61752 5.52291,-2.17406 7.54995,-4.71873 2.70603,-0.51162 3.38384,-3.60165 6.13435,-6.60621 2.09266,-3.27158 5.43714,-5.13232 7.07808,-8.4937 1.13033,-2.58692 1.69584,-4.99366 3.77498,-6.60621 0.9988,-3.77516 2.79264,-7.0596 2.83123,-11.9868 1.2689,-2.38139 2.60725,-4.83093 2.16984,-6.60575 0.44728,-2.76833 2.65543,-3.92764 3.49263,-5.94481"
       id="path4649"
       d="m 789.45243,663.05268 c -0.37898,0.90042 -1.14744,1.65522 -1.86621,2.53293 -0.82297,1.0166 -1.52059,2.22737 -1.7748,3.62841 0.21423,0.83857 -0.1128,1.81347 -0.46799,2.80527 -0.48405,1.21012 -1.14159,2.38081 -1.79613,3.59669 -10e-6,10e-6 -10e-6,10e-6 -10e-6,2e-5 -0.0412,3.89101 -1.79858,7.61454 -2.89057,11.65993 -2.28281,1.78787 -3.10379,4.50887 -4.01239,6.64912 -0.71146,1.42851 -1.93014,2.64529 -3.21418,3.89206 -1.32856,1.25484 -2.75164,2.58063 -3.88924,4.27569 -1.29496,1.38232 -2.23536,2.90209 -3.19643,4.22647 -0.88782,0.9928 -1.74646,1.90912 -2.61908,1.99456 0,0 -1e-5,10e-6 -1e-5,10e-6 -0.89781,1.01652 -2.09048,1.83977 -3.39542,2.51917 -1.25867,0.63654 -2.68125,1.17275 -4.1371,1.90841 -3.32404,1.3209 -6.9246,2.17114 -10.55991,3.34006 -3.29601,0.99476 -6.74314,2.3693 -9.57858,4.94054 -3.92762,1.22918 -8.11947,1.81944 -12.38873,2.53705 -4.25325,0.74214 -8.66528,1.61771 -12.92559,3.4318 -9.13362,2.43352 -17.47978,6.56571 -25.75564,9.95896 0,0 -10e-6,10e-6 -2e-5,10e-6 -3.10067,1.18869 -5.62109,2.79827 -7.96236,3.82258 0,0 -10e-6,0 -10e-6,0 -1.6909,1.15833 -3.92953,1.79839 -6.34804,2.37978 -2.68889,0.55432 -5.43819,0.7931 -8.15797,0.68985 -11.28738,0.67918 -21.80032,3.94035 -31.88284,4.26037 -5.91262,1.90013 -12.60296,2.28864 -19.63655,3.34232 -5.81117,0.26464 -11.79094,-1.56547 -17.77486,-3.91657 -10e-6,0 -10e-6,0 -2e-5,-1e-5 -6.65511,-2.13326 -13.03091,-3.64428 -17.61731,-6.90273 -10e-6,-1e-5 -2e-5,-2e-5 -2e-5,-2e-5 -2.54335,-2.54891 -5.16057,-3.73059 -7.0295,-4.3288 0,0 -10e-6,0 -10e-6,0 -2.65303,-1.30583 -4.80961,-2.05613 -5.77243,-3.03646 -1.97477,-0.39414 -4.26346,-1.72603 -7.07061,-3.17087 -2.27079,-1.41147 -5.14419,-2.72405 -8.70589,-3.21613 0,0 -10e-6,0 -10e-6,0 -1.45163,-0.81933 -2.82501,-1.83622 -4.11985,-2.99537 0,0 -10e-6,-10e-6 -10e-6,-10e-6 -1.96305,-1.50732 -4.06343,-2.80858 -6.26812,-3.89314 -3.1583,-3.05117 -6.43209,-4.24265 -8.72248,-4.60463 -3.1379,-1.00204 -6.17816,-1.68532 -9.02602,-2.32026 -10e-6,0 -10e-6,0 -2e-5,-1e-5 -6.7699,-2.65858 -13.73979,-4.69375 -20.78026,-6.22431 -1.12296,-0.002 -2.66262,-0.58353 -4.62913,-1.24916 -2.05382,-0.82729 -4.15422,-1.9244 -6.37076,-3.12135 -3.86843,-2.12221 -8.02656,-4.79065 -12.98864,-7.0545 -2.09107,4.17577 -4.12377,8.3809 -6.09159,12.6186 3.93773,1.48526 8.07397,3.99 12.87232,6.3598 2.43044,1.21441 5.0374,2.42999 7.87069,3.46988 2.04874,0.86711 4.67614,1.612 7.83604,1.74193 6.44499,1.2075 12.77913,2.84678 18.88732,5.05065 0,1e-5 0,1e-5 10e-6,1e-5 3.19715,0.62732 6.21845,1.19511 9.00047,1.98292 2.7657,1.15595 4.89414,1.57463 5.41024,2.40501 0,0 0,0 0,0 2.21128,1.11038 4.33314,2.38311 6.33155,3.81139 0,10e-6 10e-6,10e-6 10e-6,10e-6 2.45206,1.62302 5.04387,3.0859 7.76887,4.33369 0,0 10e-6,10e-6 10e-6,10e-6 1.92957,0.10541 4.17854,1.10231 6.75,2.26369 1.92571,1.05844 4.46407,2.22503 7.72457,2.65667 2.34319,2.1035 4.61447,2.96483 6.21006,3.44414 1e-5,0 1e-5,0 1e-5,0 2.27123,1.12011 4.05464,1.65096 4.62217,2.46512 0,0 0,0 0,0 6.95817,4.33032 14.38119,6.16242 21.03762,8.0235 0,10e-6 10e-6,10e-6 10e-6,10e-6 6.65292,2.35447 13.94327,4.05723 21.52861,3.56268 6.34816,-1.14 13.28451,-1.85272 20.12957,-4.25242 10.90808,-0.79717 20.80914,-4.37198 30.67339,-5.27369 3.1503,0.003 6.28477,-0.39876 9.31704,-1.16881 2.58914,-0.59238 5.32354,-1.54597 7.78529,-3.27574 1e-5,0 1e-5,-10e-6 2e-5,-10e-6 2.72665,-1.3062 4.95502,-2.88585 7.19822,-3.78447 8.53879,-3.85826 16.6102,-8.26531 25.20438,-10.87978 3.74054,-1.79248 7.94273,-2.7816 12.20639,-3.7323 4.41067,-0.99927 8.93227,-1.91924 13.29197,-3.50028 2.33377,-2.31535 5.57231,-3.72784 8.86447,-4.96274 3.49118,-1.273 7.15778,-2.30337 10.66973,-3.84816 1.31118,-0.72779 2.75015,-1.33677 4.15295,-2.11007 1.27197,-0.69477 2.4525,-1.63046 3.35446,-2.83544 1.47012,-0.32643 2.48979,-1.42587 3.18772,-2.55338 1.00276,-1.48536 1.86067,-3.01002 2.98459,-4.28581 0.94758,-1.55895 2.28209,-2.89161 3.59189,-4.25132 1.27703,-1.31681 2.54279,-2.7255 3.3306,-4.41605 1.00953,-2.41021 1.64815,-5.07574 3.62818,-6.66808 0.98947,-4.02754 2.66371,-7.97496 2.59995,-12.05778 0,-10e-6 0,-10e-6 10e-6,-2e-5 0.59586,-1.18146 1.20823,-2.35523 1.65204,-3.58534 0,-10e-6 0,-10e-6 0,-2e-5 0.34174,-0.99605 0.63005,-2.04006 0.3685,-2.95496 0.19255,-1.31745 0.8355,-2.51055 1.61313,-3.53925 0.68283,-0.89687 1.42795,-1.69505 1.76827,-2.61152 z"
       inkscape:connector-curvature="0"
       sodipodi:nodetypes="ccccccccccccccccccccccc" />
    <path
       style="fill:#008080;stroke:#008080;stroke-width:1px;stroke-linecap:butt;stroke-linejoin:miter;stroke-opacity:1"
       inkscape:path-effect="#path-effect4661"
       inkscape:original-d="m 855.03262,109.26626 c -1.18959,3.50664 -1.45813,4.97045 -4.71873,10.38119 -1.82286,6.20735 -0.58097,13.667 -0.94374,20.47772 -0.0944,7.03756 -0.0209,15.21137 2.89255,20.0591 1.44301,6.34241 6.33426,12.33983 7.48864,17.97535 3.44296,5.19015 5.63291,11.27878 9.43745,16.9874 2.64955,5.24495 5.8568,12.3007 10.38119,17.93115 1.37082,6.95368 4.22578,8.74115 6.89934,15.18259 2.07905,4.97253 5.69271,11.94755 6.38712,19.67318 -0.16086,6.93914 6.49713,13.52096 8.63298,21.18795 0.46006,6.26449 -2.58,10.67124 -6.82437,15.82794 -3.54004,6.42201 -13.15369,10.85736 -16.91143,16.91387 -3.68532,4.02722 -9.96732,5.65679 -12.4844,10.52826 -7.60769,2.06269 -15.5148,4.44226 -18.14442,9.87622 -5.1563,5.64207 -6.37459,25.48521 -3.48328,32.73447 2.50765,5.83438 15.7718,13.23123 18.94109,17.56836 1.67755,5.96343 3.89153,7.98171 6.7474,13.78969 1.99086,4.64594 4.71801,9.64836 7.40877,13.5789 2.57462,7.85743 2.96923,16.62055 3.77498,25.20959 0,2.92174 0,5.84348 0,8.76522"
       id="path4659"
       d="m 881.01376,433.91441 c 0.05,-2.92952 0.1,-5.8614 0.14981,-8.79563 -0.65483,-8.49994 -0.86385,-17.23833 -3.45534,-25.65765 -2.82078,-4.29003 -5.18798,-8.89078 -7.14356,-13.66805 0,0 -10e-6,-10e-6 -10e-6,-2e-5 -1.15739,-2.45002 -2.51479,-4.73494 -3.75012,-7.00592 -1.19067,-2.2008 -2.1489,-4.52062 -2.79375,-6.91554 -1.282,-1.79584 -2.86162,-3.15872 -4.30258,-4.39291 -1.90531,-1.59051 -3.84726,-3.08112 -5.72377,-4.58872 -1.9059,-1.53416 -3.75998,-3.0598 -5.41422,-4.71301 -1.31547,-1.35947 -2.53009,-2.61042 -3.02307,-3.96784 -0.7743,-1.98997 -0.96689,-4.308 -1.11811,-6.74297 -0.16437,-3.06074 -0.0425,-6.14722 0.28623,-9.2224 0.33001,-3.0287 0.84067,-5.99617 1.70744,-8.80139 0.80771,-2.29815 1.56235,-4.41964 2.86893,-5.69903 0.9819,-2.17966 3.52327,-3.71305 6.23103,-5.12152 3.50863,-1.69445 7.41408,-2.85052 11.47552,-4.07644 1.05376,-1.8692 3.31683,-3.37499 5.7858,-5.07817 0,0 0,0 10e-6,0 2.32265,-1.44383 5.08204,-3.03936 7.58567,-5.61458 1.68635,-2.75987 4.85003,-4.90961 8.11531,-7.57044 3.13104,-2.28674 6.69812,-5.02504 9.23795,-9.25046 1.96343,-2.24832 4.00681,-4.77757 5.59705,-7.87975 1.56776,-3.26991 2.33012,-6.95984 2.10949,-10.7183 0,0 0,-1e-5 0,-2e-5 -1.30592,-4.73811 -3.55124,-8.68063 -5.41577,-12.22265 0,-1e-5 0,-1e-5 0,-2e-5 -1.54903,-3.32505 -3.08352,-6.15984 -2.74914,-8.42392 -0.72377,-8.03956 -3.82743,-15.03575 -6.38709,-21.36682 0,-1e-5 0,-1e-5 0,-2e-5 -1.24598,-3.05623 -2.76979,-5.6612 -4.08128,-8.01595 -1.26957,-2.3754 -2.23463,-4.8789 -2.76826,-7.4065 -3.98013,-5.20863 -6.81341,-11.75713 -10.16344,-18.58243 -2.97432,-4.47889 -5.02518,-10.43906 -8.8935,-16.42915 -0.78056,-3.89486 -2.32327,-6.91456 -3.59443,-9.27134 0,-1e-5 0,-1e-5 -10e-6,-2e-5 -1.56388,-3.33441 -3.03237,-6.2013 -3.53004,-8.78057 -1.07808,-1.7153 -1.43777,-4.43144 -1.93001,-7.6137 -0.28413,-3.11566 -0.19979,-6.44912 -0.10146,-9.98026 0,0 0,-1e-5 0,-1e-5 0.25329,-3.94509 0.0911,-7.54235 0.10943,-10.75111 -0.0289,-2.92085 -0.0691,-5.41789 0.56708,-7.223 1.1265,-1.6941 2.31064,-3.63864 3.33539,-5.93413 0.69265,-1.61994 1.19141,-3.071 1.61988,-4.29815 -4.36069,-1.68286 -8.71695,-3.37544 -13.05314,-5.11644 -0.53489,1.65316 -0.90498,3.02373 -1.31828,4.04563 -0.70138,1.81906 -1.75071,3.75458 -2.92103,5.88239 -1.25105,4.65129 -1.4937,8.97625 -1.44143,12.7847 0.10195,3.76647 0.39698,7.15224 0.2881,10.18307 0,0 0,0 0,1e-5 0.0109,3.7084 0.0818,7.62986 0.56303,11.70501 0.19138,3.2043 1.00643,7 3.23178,10.76092 0.9921,3.93352 2.67367,7.07459 4.1943,9.69934 0,0 0,1e-5 1e-5,1e-5 1.63221,3.24073 3.20139,5.85841 3.70339,8.17892 3.3268,4.82549 5.81095,11.23959 10.01644,17.49479 2.92203,5.54735 5.96048,11.72158 10.65131,17.28094 0.5543,2.93056 1.65653,5.66776 3.16894,8.1223 1.47975,2.48505 2.91268,4.6707 3.83377,6.81129 0,0 0,0 10e-6,1e-5 2.80164,6.43732 5.91253,12.23725 6.46759,18.10062 0.15682,4.94721 2.15345,8.91278 4.13729,12.02268 0,1e-5 0,1e-5 0,1e-5 2.02368,3.4987 4.11854,6.53242 5.01588,9.64065 0,0 10e-6,0 10e-6,10e-6 0.21327,2.05823 -0.23396,4.25905 -1.20417,6.23326 -1.09685,2.42297 -2.87515,4.74248 -4.77245,7.18962 -1.41154,2.93156 -4.46519,5.33403 -7.59101,8.07451 -2.96565,2.38637 -6.41111,5.06292 -8.84404,8.99163 0,10e-6 0,2e-5 -10e-6,2e-5 -1.34557,1.62611 -3.57457,2.85584 -5.90652,4.43547 -1e-5,0 -1e-5,1e-5 -2e-5,1e-5 -2.11691,1.30628 -4.40071,3.16515 -5.79147,6.02269 -3.42952,0.85109 -7.02578,1.79764 -10.48175,3.41765 -3.08156,1.3694 -6.19734,3.60515 -7.90435,7.07083 0,0 -10e-6,10e-6 -10e-6,10e-6 -1.85788,2.16967 -2.72261,4.72431 -3.2696,7.06952 -0.84765,3.1932 -1.28925,6.43669 -1.5105,9.64951 -0.22956,3.26831 -0.23328,6.56407 0.0635,9.84162 0.21833,2.55219 0.59598,5.23475 1.64672,7.77776 0.96297,2.06305 2.47921,3.62102 3.95538,4.95662 1.86388,1.72089 3.85342,3.24235 5.83658,4.71609 0,0 10e-6,1e-5 10e-6,1e-5 1.96544,1.4625 3.94487,2.86757 5.84979,4.34278 1.41524,1.079 2.81773,2.09304 3.80749,3.39311 0.72721,2.43181 1.78054,4.75302 3.07464,6.92893 1.33804,2.2549 2.74991,4.4338 3.93217,6.72276 0,10e-6 10e-6,2e-5 10e-6,2e-5 2.12613,4.70573 4.68122,9.23646 7.6921,13.4541 2.79041,7.97536 3.29424,16.63641 4.26156,25.11468 0.0582,2.9241 0.11647,5.85092 0.17489,8.78044 z"
       inkscape:connector-curvature="0"
       sodipodi:nodetypes="cccccccccccccccccccc" />
    <path
       style="fill:none;stroke:#008080;stroke-width:1px;stroke-linecap:butt;stroke-linejoin:miter;stroke-opacity:1"
       d="m 881.53968,432.66922 c -2.49546,6.15527 -0.87163,12.93078 1.38281,18.6679 2.53309,3.43219 4.29238,7.55663 5.03428,10.13338 1.57397,3.98142 3.05276,6.36731 5.33677,10.60873 3.93362,5.71047 8.58526,12.3439 11.75386,17.28509 2.74863,3.86566 7.25772,8.89082 8.02661,12.94438 3.29441,4.01786 4.48557,9.72921 8.56708,14.02036 3.57542,5.38276 8.17816,6.01544 10.37106,10.37106 6.05654,3.34023 8.39672,8.18984 13.10327,13.13504 4.89207,5.62256 8.98506,12.59224 6.26597,20.43695 -2.5098,7.54294 1.77549,15.03399 3.44708,21.7403 1.79269,2.23276 3.94454,7.56023 7.60544,12.44527 1.98758,3.6967 4.28229,9.30492 4.14842,14.19725 -0.0468,5.73145 0.44436,11.80317 -1.38281,16.91592 -0.97681,4.85326 -3.82527,7.22153 -6.59409,12.28071 -2.19907,2.85965 -5.46759,6.15071 -7.23398,9.1528 -3.55774,1.98739 -6.6735,3.99518 -10.37106,6.91403 -3.5633,0.95024 -6.70265,3.53263 -11.75386,4.83983 -6.50375,1.93225 -15.18497,3.64841 -21.43351,0 -7.04036,-1.25331 -14.01326,-1.64134 -20.05071,-4.83983 -4.96098,-0.30633 -3.82415,3.44496 -8.97138,2.36396 -3.96183,0.84903 -3.05199,6.65704 -7.69385,5.97425 -6.82554,-0.26612 -11.58014,-1.71554 -14.83529,-4.31858 -3.05896,-2.06231 -8.65282,-0.65004 -11.80189,-0.395 -3.25331,0.073 -6.95686,1.51241 -11.31848,3.28941 -4.52629,3.16816 -10.93489,1.76112 -16.64066,2.07421 -5.34992,0.27025 -9.63346,9.74797 -15.02943,7.10162 -4.67303,-1.80986 -17.83649,13.75914 -20.02576,17.56275"
       id="path4680"
       inkscape:connector-curvature="0"
       sodipodi:nodetypes="cccccccccccccccccccccccccccc" />
    <path
       style="fill:none;stroke:#008080;stroke-width:1px;stroke-linecap:butt;stroke-linejoin:miter;stroke-opacity:1"
       d="m 789.35208,663.11733 c 0.0178,-4.6729 8.8169,-13.37286 13.36758,-14.73016 4.03347,-4.73346 13.66528,-0.36394 19.3593,-3.45702 3.58375,-1.76098 9.43029,-4.06886 11.0594,-5.33434 1.81514,-3.57397 7.00416,-6.39702 10.78707,-9.59809 3.81651,-4.33934 10.71075,-3.71678 14.76555,-5.85461 3.33558,-1.54088 7.82027,-3.33134 10.40343,0.0449 3.64327,3.01897 6.85116,5.24706 10.37106,6.22263 5.99971,1.30214 10.51163,3.30278 17.11724,2.76561 6.61238,1.84357 8.49372,-6.6778 9.63275,-9.61908 2.40556,-4.92184 3.15703,-10.42077 5.05458,-15.27145 1.50441,-4.00036 0.23818,-9.04636 0.77339,-13.49567 -0.35785,-5.83645 -3.94332,-9.22119 -6.30462,-14.16047 -3.36228,-2.34299 -4.96895,-7.57273 -9.67965,-10.37106 -3.56185,-3.32512 -5.64466,-5.26817 -8.29685,-9.67965 -1.98666,-4.65474 -1.7296,-11.2239 -0.6914,-16.24799 1.32941,-4.97718 2.83587,-9.88102 4.14842,-14.86518 1.97438,-3.84166 4.23425,-7.46013 4.83983,-11.75386 1.61844,-2.93251 1.42891,-8.14176 1.3828,-12.44526 1.32146,-4.15549 0.56828,-8.39046 1.38281,-12.44527 0.93095,-4.14311 0.55463,-11.04021 -0.9975,-14.14208"
       id="path4682"
       inkscape:connector-curvature="0"
       sodipodi:nodetypes="ccccccccccccccccccccc" />
    <path
       style="fill:none;stroke:#008080;stroke-width:1px;stroke-linecap:butt;stroke-linejoin:miter;stroke-opacity:1"
       d="m 808.9632,646.08641 c 0.0949,-0.81628 1.79283,-1.36209 3.31391,-5.48799 1.73699,-2.39692 3.2054,-4.58573 3.68213,-7.73246 1.49823,-2.81072 2.40231,-7.67739 6.25961,-6.99604 4.92841,-0.96188 9.48417,-1.05581 13.25566,-3.31392 2.24627,-2.48821 4.62556,-2.26872 8.46889,-2.20927 4.76446,-0.1492 6.86215,1.60424 11.34187,1.9536 1.27412,1.15137 5.4525,0.70159 5.66863,1.3274"
       id="path4686"
       inkscape:connector-curvature="0"
       sodipodi:nodetypes="cccccccc" />
    <path
       style="fill:none;stroke:#008080;stroke-width:1px;stroke-linecap:butt;stroke-linejoin:miter;stroke-opacity:1"
       d="m 801.1205,649.10483 c 1.40401,-2.05615 1.79387,-5.57141 3.05593,-8.13819 0.78554,-4.34108 1.90828,-8.41994 2.20928,-12.80467 0.18785,-2.59527 -0.35,-4.88776 -0.36821,-7.40133 0.19925,-3.02616 -0.65426,-6.40447 1.10463,-8.8828 1.15252,-2.86277 2.18635,-5.57018 4.78677,-6.99604 1.91416,-1.42065 3.82148,-3.10705 6.25961,-4.41856 2.35231,-0.93419 4.65136,-2.16257 6.38308,-3.73714 1.42965,-0.10797 3.94825,-2.18815 6.13615,-3.2589 2.08241,-1.75343 4.48059,-3.80621 6.25962,-5.8914 1.34226,-1.84282 3.03417,-3.83755 3.68212,-6.25961 1.54323,-2.47654 1.55053,-4.08972 3.68213,-5.89141 0.81001,-1.67462 3.74908,-2.62855 4.78677,-4.05034 1.88614,-1.09845 4.00771,-2.09291 5.8914,-3.31391 1.50052,-0.76509 3.86482,-1.46696 5.52319,-2.57749 2.80448,-0.91721 5.92722,-2.65845 8.06118,-4.21378 1.46228,-0.99342 2.84765,-2.6018 4.65988,-4.45694 1.84079,-1.70715 2.82031,-3.34189 4.58493,-4.95315 2.56571,-1.71505 3.34387,-3.56403 4.78677,-5.15497 0.9355,-1.0067 1.926,-3.42936 2.9457,-3.68213 0.78007,-1.99285 2.89616,-3.3015 2.9457,-4.05034"
       id="path4688"
       inkscape:connector-curvature="0"
       sodipodi:nodetypes="ccccccccccccccccccccc" />
    <path
       style="fill:#008080;stroke:#008080;stroke-width:1px;stroke-linecap:butt;stroke-linejoin:miter;stroke-opacity:1"
       inkscape:path-effect="#path-effect4697"
       inkscape:original-d="m 844.57674,328.29767 c -0.84796,2.54643 -3.04735,4.39538 -3.79411,7.00531 -1.66438,2.04803 -3.89075,3.60464 -5.95739,5.18294 -1.41627,1.77851 -2.82081,2.9919 -4.81489,2.99358 -1.65608,0.89619 -4.09446,2.18201 -6.28241,3.0855 -1.70077,1.19702 -3.93681,2.28329 -5.45575,3.64532 -0.19029,1.57571 -2.8362,3.55539 -3.61923,5.76382 -1.10825,1.83517 -1.82063,3.65384 -4.45521,3.52671 -3.14203,0.97764 -6.3397,1.51014 -9.59861,1.50186 -2.93848,0.64974 -5.45541,1.46143 -8.37024,1.56712 -2.50157,1.23381 -5.24987,1.83094 -7.87541,2.7325"
       id="path4694"
       d="m 784.39409,365.42055 c 2.63283,-0.84051 5.37335,-1.37374 7.90809,-2.56036 2.8783,-0.0445 5.64464,-0.83199 8.3494,-1.37172 3.26812,0.0828 6.52589,-0.39147 9.63371,-1.3005 1.16615,0.0904 2.37906,-0.2896 3.26635,-1.17913 0,0 0,0 0,0 0.82628,-0.85916 1.33922,-1.84801 1.85283,-2.67906 0.36346,-1.00406 1.17724,-1.89496 1.99323,-2.89807 0.61912,-0.60817 1.4574,-1.44393 1.692,-2.79579 1.42304,-1.1999 3.34634,-1.92361 5.17783,-3.08892 2.11806,-0.83145 4.11573,-1.84319 6.04783,-2.86511 0,0 0,0 10e-6,0 2.46606,-0.0428 4.35166,-1.56684 5.4874,-3.19841 0,0 0,0 0,0 2.11514,-1.56922 4.42968,-3.18288 6.35183,-5.46528 0.3264,-1.06678 1.07027,-2.12357 1.86699,-3.30766 0.75194,-1.03117 1.57881,-2.21462 2.15692,-3.69768 -1.07804,-0.44308 -2.16527,-0.86617 -3.26213,-1.26809 -0.25744,0.96939 -0.93098,1.96763 -1.6411,3.10678 -0.69633,1.03003 -1.43619,2.25148 -1.8391,3.74951 0,0 0,0 0,0 -1.40285,1.82235 -3.47735,3.28589 -5.54995,4.92661 0,0 0,0 0,0 -1.29901,1.44689 -2.67872,2.84845 -4.16305,2.81978 0,0 0,0 0,0 -2.16385,1.20462 -4.30047,2.3652 -6.48796,3.32085 -1.74782,1.35681 -3.87985,2.47059 -5.68127,4.1681 -0.023,0.75464 -0.80189,1.5388 -1.48099,2.52349 -0.75091,0.94537 -1.59063,1.99816 -2.04365,3.31912 -0.51493,0.88223 -0.88988,1.75077 -1.47614,2.36457 -10e-6,0 -10e-6,0 -10e-6,0 -0.57089,0.62446 -1.50329,0.93844 -2.42276,0.92865 -3.09823,1.03602 -6.3263,1.66184 -9.56296,1.73682 -2.81636,0.69219 -5.5398,1.61089 -8.35858,1.78137 -2.47099,1.29268 -5.22416,1.96666 -7.81477,2.93013 z"
       inkscape:connector-curvature="0" />
    <path
       style="fill:#008080;stroke:#008080;stroke-width:1px;stroke-linecap:butt;stroke-linejoin:miter;stroke-opacity:1"
       inkscape:path-effect="#path-effect4709"
       inkscape:original-d="m 226.33866,123.4622 c 2.25229,4.49071 1.93582,7.72742 4.01616,8.77004 2.4345,1.35506 0.44212,3.42403 2.67767,5.24435 0.69024,4.02124 4.6059,6.66458 4.96751,10.52341 2.81242,5.25227 5.42561,10.09733 8,16 2.32284,5.35558 4.76665,10.44012 7,15 2.635,6.75984 5.73931,13.32529 7,20.65439 -0.44555,7.06318 1.61867,13.18853 1,20.34561 0.71582,6.33946 1.26927,12.76006 1,19.50712 -0.007,9.16215 0.0102,18.34594 0,27.49288 -1.88982,5.50014 -2.1281,11.66226 -2,18 -1.44515,3.86775 -0.9228,8.59015 -1,13 -2.65144,5.79419 -3.92276,12.88036 -8,19 -4.93245,6.42439 -7.61001,8.77158 -11,12.5 -2.71539,3.98241 -7.83911,8.8836 -10,11 -4.18002,5.32499 -9.14515,8.78019 -16,12.5 -6.03215,5.06912 -13.40963,11.08518 -19,14 -6.75758,5.36731 -6.97449,12.43519 -11.58747,18.96567 -2.39077,8.66358 -12.44916,26.34931 -15.75555,35.67852 -2.47782,8.06275 -6.60187,26.94426 -9,34.66511"
       id="path4707"
       d="m 159.13448,456.45761 c 1.863,-5.65438 3.26986,-11.43922 4.77697,-17.16041 1.53357,-5.81941 2.96091,-11.64744 4.80836,-17.30153 1.02699,-2.74637 2.30632,-5.41766 3.61414,-8.10544 1.57776,-3.2417 3.22579,-6.45947 4.86171,-9.69757 0,-10e-6 0,-10e-6 0,-10e-6 1.60682,-3.17975 3.21363,-6.37783 4.72,-9.64486 1.15188,-2.48962 2.29544,-5.06166 3.0951,-7.82555 2.30877,-3.17377 3.70866,-6.683 5.20139,-9.85484 1.5047,-3.18758 3.396,-6.1254 5.97148,-8.04465 3.47687,-1.74241 6.61089,-3.9268 9.58774,-6.12114 3.32881,-2.44206 6.53051,-5.00329 9.68068,-7.57013 6.11039,-3.11518 12.13659,-7.03071 16.73744,-12.66947 0,0 1e-5,0 1e-5,-1e-5 1.59974,-1.50578 3.22723,-3.03468 4.82242,-4.65093 1.89125,-1.89823 3.80861,-3.94735 5.49682,-6.331 0,0 0,0 0,0 3.73867,-3.96449 7.72074,-7.92193 11.32922,-12.44865 0,-1e-5 1e-5,-1e-5 1e-5,-2e-5 4.42094,-6.77446 6.04824,-14.24604 8.8368,-20.19679 0.3449,-5.24757 -0.15998,-9.88664 1.27234,-13.16241 0.11545,-6.39896 0.3846,-12.60494 2.32515,-17.95626 0.20361,-9.35559 0.38402,-18.72647 0.59288,-28.10992 0,0 0,-1e-5 0,-2e-5 0.37711,-6.70999 -0.046,-13.29415 -0.68589,-19.67388 0.69672,-8.1339 -1.20615,-15.07838 -0.66661,-20.5739 -1.40211,-8.4308 -4.559,-15.85589 -7.08141,-22.74182 -1e-5,0 -1e-5,-1e-5 -1e-5,-2e-5 -2.3552,-5.03576 -4.64146,-10.05263 -6.72473,-15.09831 -2.30663,-5.40645 -4.96788,-10.47594 -7.57509,-15.36463 -1e-5,0 -1e-5,-1e-5 -1e-5,-1e-5 -0.54207,-3.60512 -1.85965,-5.93045 -2.99382,-7.06361 0,-1e-5 -1e-5,-2e-5 -1e-5,-2e-5 -1.34991,-2.43398 -2.52678,-3.98123 -2.6592,-4.79458 0,1e-5 0,1e-5 0,1e-5 0.514,0.66419 0.61546,0.44373 0.051,-0.24883 0.0499,-0.54937 -0.19234,-1.74365 -0.856,-3.53328 -1.23521,-2.19847 -2.66065,-3.64286 -4.12183,-4.32868 1.65474,1.8205 2.35089,1.83548 1.46073,0.9218 -0.46135,-1.67397 -1.04842,-3.67505 -2.01054,-5.90554 -4.37098,1.63807 -8.68242,3.42712 -12.92019,5.39972 0.61229,1.02023 1.08337,2.60219 1.75534,4.56561 -0.14682,1.47925 1.45734,4.15335 5.33889,7.08058 -0.50517,-0.15609 -1.06686,-0.84123 -1.83914,-2.04266 -0.28276,-0.96466 -0.41846,-1.24168 -0.28403,-0.89472 -0.36085,1.41333 0.42972,3.33387 2.57766,5.32323 0.54431,3.10102 1.68372,4.96374 2.56887,5.83715 1e-5,0 1e-5,1e-5 1e-5,1e-5 1.02446,2.05096 1.92203,3.10398 1.74908,3.35298 3.03734,5.61831 5.98902,11.08697 8.46614,16.60677 2.32093,5.07237 4.80183,10.01287 7.31474,14.88388 1e-5,1e-5 1e-5,1e-5 1e-5,1e-5 2.786,6.68176 5.89013,12.64675 6.98893,18.6249 -0.29893,8.02542 1.84413,14.6329 1.38743,20.12599 0.8408,6.56735 1.49263,13.02204 1.36673,19.35091 0,0 0,10e-6 0,2e-5 0.2159,8.96103 0.45114,17.9386 0.65406,26.93576 -1.97533,6.09485 -1.99129,12.27525 -1.63047,18.05238 -1.59682,4.82377 -0.87885,9.26004 -0.70106,12.8688 -2.90288,6.54518 -3.90616,13.13814 -7.18891,18.01424 0,10e-6 0,10e-6 -1e-5,2e-5 -3.16709,4.31976 -6.94385,8.35106 -10.65268,12.59816 -10e-6,0 -10e-6,1e-5 -10e-6,1e-5 -1.37411,2.1183 -3.11157,4.10862 -4.93812,6.12513 -1.51876,1.66554 -3.12008,3.29555 -4.73712,4.9472 0,0 -1e-5,1e-5 -1e-5,1e-5 -3.87217,5.17718 -9.46676,9.07879 -15.34757,12.47299 -3.16994,2.76155 -6.3409,5.48106 -9.60067,8.05407 -2.96052,2.32843 -5.91945,4.56974 -9.10956,6.31508 -3.18487,2.65359 -5.36535,6.14623 -6.92291,9.74673 -1e-5,10e-6 -1e-5,10e-6 -1e-5,2e-5 -1.52339,3.51718 -2.75557,7.03701 -4.76741,10.0021 -0.6989,2.71348 -1.77267,5.35773 -2.87549,8.00416 -1.36227,3.26994 -2.83911,6.50284 -4.32506,9.73783 -1e-5,0 -1e-5,1e-5 -1e-5,1e-5 -1.51135,3.29003 -3.04305,6.57717 -4.50826,9.89625 -1.21536,2.75286 -2.41522,5.52784 -3.36679,8.39108 -1.65619,5.79758 -2.87013,11.69271 -4.18545,17.56255 -1.29541,5.78181 -2.48187,11.59813 -4.1342,17.31795 z"
       inkscape:connector-curvature="0"
       sodipodi:nodetypes="cccccccccccccccccccc" />
    <path
       style="fill:#008080;stroke:#008080;stroke-width:1px;stroke-linecap:butt;stroke-linejoin:miter;stroke-opacity:1"
       inkscape:path-effect="#path-effect4720"
       inkscape:original-d="m 251.6455,171.63716 c 2.23929,-1.75096 13.89267,6.42589 22.00697,10.53112 9.00772,5.05255 16.33565,16.18823 25.24294,22.24647 8.9657,4.64756 16.87169,10.92844 25.57268,15.9333 8.16362,5.04404 17.41102,4.49035 26.48883,7.05205 8.45391,3.54302 17.98544,6.14832 26.19243,4.72482 13.08192,-0.73307 12.99216,-14.53016 24.67269,-16.99997 10.31143,-1.72546 21.08403,-6.52194 30.8681,-6.08653 9.60142,0.40281 17.52448,4.72016 26.73451,5.83001 12.45846,3.6863 26.16132,5.28245 36.57535,13.63157 9.56673,4.79861 19.55638,9.29228 28.09186,15.80116"
       id="path4718"
       d="m 524.39505,243.90357 c -8.46724,-6.74092 -18.32321,-11.4266 -27.75613,-16.3996 -5.17746,-4.31398 -11.40916,-7.09193 -17.69344,-9.10857 -6.39321,-2.07658 -12.89828,-3.52785 -19.11126,-5.50871 0,0 -1e-5,0 -1e-5,0 -4.29739,-0.6054 -8.55637,-2.04645 -12.97766,-3.42659 -4.43214,-1.41494 -9.09226,-2.7069 -14.0534,-3.03605 -5.6115,-0.32434 -11.02813,0.75419 -16.09451,1.99593 0,0 -10e-6,0 -10e-6,0 -5.33628,1.26953 -10.45499,2.75658 -15.49864,3.47177 -3.23019,0.64507 -6.20296,2.14544 -8.64418,4.25443 0,0 0,0 0,0 -2.18104,1.92489 -3.85687,4.01991 -5.38266,5.8726 -1e-5,1e-5 -1e-5,1e-5 -1e-5,1e-5 -1.54798,1.80633 -2.95141,3.43371 -4.49362,4.41322 -1.67943,1.12112 -3.82751,1.69193 -5.98848,1.77251 -7.76011,1.27023 -16.08606,-1.65302 -24.25391,-5.07205 -4.97613,-1.48616 -9.81563,-2.16772 -14.2143,-3.07419 0,0 -10e-6,0 -10e-6,0 -4.21866,-0.92728 -8.15177,-2.05459 -11.1437,-4.10545 -8.09745,-4.89559 -15.86856,-11.33949 -25.24748,-16.47825 -3.8559,-2.70372 -7.25271,-6.68924 -11.14451,-10.83913 0,0 0,-1e-5 -1e-5,-1e-5 -3.77476,-4.12114 -8.12626,-8.63688 -13.99542,-12.18691 0,0 -1e-5,0 -1e-5,-1e-5 -4.1266,-2.19671 -8.30003,-4.98757 -12.94879,-7.69208 -1.79517,-1.07061 -3.8879,-2.24663 -6.39442,-3.27506 -0.78587,-0.36449 -1.99622,-0.73806 -3.64788,-0.99989 -0.55658,-0.32329 -1.50208,-0.31194 -2.80518,0.0759 -0.15919,4.87514 1.08767,9.43685 5.0519,12.59418 -2.52931,1.19288 -3.75026,1.65636 -3.86359,1.18795 -0.28132,-0.10407 -0.17088,-0.0331 0.33141,0.091 1.36132,0.43805 2.91271,1.25655 4.73461,2.18873 4.20096,2.19527 8.58618,4.83553 13.48689,7.18742 0,0 0,0 0,0 3.84289,1.87869 7.38902,5.46606 11.38416,9.28454 0,0 0,0 0,0 4.07209,3.98563 8.48186,8.42881 14.02149,12.09087 8.49822,4.09292 16.63923,10.22564 25.9481,15.30413 4.75502,2.7234 9.7944,4.03002 14.56768,4.72709 4.67331,0.72846 9.06886,1.0704 13.02658,2.0881 8.41318,3.48042 18.13804,6.09286 27.949,4.27164 3.27531,-0.23519 6.50748,-1.36994 9.23651,-3.40119 2.37984,-1.81806 4.14721,-3.94896 5.64733,-5.96683 0,0 1e-5,-1e-5 1e-5,-1e-5 1.53626,-1.99994 2.86542,-3.89353 4.39619,-5.32074 1.54756,-1.48563 3.46123,-2.6105 5.50319,-3.0924 5.49574,-1.06386 10.64108,-2.81003 15.71321,-4.27739 4.91079,-1.38982 9.76082,-2.65314 14.56636,-2.53986 4.33178,0.0516 8.729,1.08161 13.14866,2.24743 4.3228,1.1599 8.76915,2.42495 13.4148,2.87894 10e-6,0 10e-6,0 2e-5,0 6.37354,1.72015 12.81532,2.84641 19.08363,4.57899 0,0 1e-5,0 1e-5,0 6.27651,1.74855 12.43472,4.13561 17.58824,8.06669 9.77686,4.61417 19.78593,8.80954 28.55324,15.15696 z"
       inkscape:connector-curvature="0"
       sodipodi:nodetypes="ccccccccccc" />
    <path
       style="fill:#008080;stroke:#008080;stroke-width:1px;stroke-linecap:butt;stroke-linejoin:miter;stroke-opacity:1"
       inkscape:path-effect="#path-effect4731"
       inkscape:original-d="m 263.24155,252.43696 c 5.65386,3.56043 8.93897,12.6649 11.72313,14.95125 5.32101,3.46308 5.10903,7.33267 10.71903,10.22394 5.45895,2.89157 11.26216,5.09556 16.01488,9.13475 5.87714,3.30216 10.04184,8.64163 12.53928,14.85931 1.89166,4.24699 2.00036,9.64083 1.66653,14.39309 -0.38468,6.721 2.14574,13.30377 8.52653,16.2393 4.58663,1.94413 8.70703,4.34599 13.22199,6.69462 4.70334,1.88419 8.57762,4.97475 13.5271,6.28314 4.22764,1.16068 10.55951,2.83142 12.96395,6.39985 3.35379,5.09997 8.02542,10.16817 7.39266,16.62266 -1.02688,1.71897 3.03038,12.85417 3.93197,13.02043"
       id="path4729"
       d="m 375.55927,380.76759 c 0.13727,0.0711 0.17571,0.0509 0.0901,0.003 -0.0664,-0.0821 -0.12808,-0.19253 -0.20043,-0.31988 -0.22261,-0.40127 -0.40645,-0.83832 -0.59168,-1.29154 -0.53633,-1.31973 -0.97973,-2.67989 -1.38196,-4.05834 0,0 0,-1e-5 0,-1e-5 -0.41638,-1.43229 -0.78504,-2.86357 -1.00743,-4.29628 -0.0828,-0.54428 -0.14872,-1.06296 -0.14079,-1.54918 0.0695,-0.42029 0.0525,-0.69917 0.12877,-0.7142 0.42412,-3.38012 -0.4898,-6.78746 -1.96746,-9.7633 -1.4998,-2.90994 -3.39558,-5.48588 -4.96915,-8.07751 -1.6409,-2.454 -4.11625,-3.95487 -6.43746,-4.94719 -2.43861,-1.10911 -4.93562,-1.89069 -7.33595,-2.637 0,0 0,0 -10e-6,0 -4.1931,-1.21728 -7.9788,-4.44799 -12.96576,-6.63868 -4.18336,-2.38057 -8.38481,-5.01991 -13.04346,-7.19426 -2.18479,-1.11331 -3.96076,-3.08552 -4.88717,-5.30456 -1.02835,-2.29933 -1.26769,-5.02623 -1.02875,-7.73013 0.63579,-5.01891 0.69932,-10.69703 -1.49178,-16.37471 -2.40732,-6.94702 -7.05327,-13.27582 -13.7033,-17.33161 -5.40735,-4.73595 -11.44556,-7.36615 -16.25474,-10.07311 0,0 0,0 0,0 -1.15032,-0.58081 -2.20125,-1.85432 -3.29207,-3.38032 0,0 0,0 0,0 -1.44611,-2.23707 -3.45109,-4.66325 -6.3774,-6.8018 0.18635,0.2575 0.12005,-0.23066 -0.50741,-1.18196 -0.7302,-1.24424 -1.48526,-2.67264 -2.38585,-4.22685 -1.66119,-3.19608 -4.1942,-6.89094 -8.40743,-10.06292 -2.72414,3.76932 -5.35551,7.61651 -7.88926,11.54467 1.54847,0.52664 3.04289,2.79531 5.09783,5.50516 0.84548,1.22776 1.73877,2.64048 2.78442,4.15387 0.66528,1.05458 1.887,2.62877 3.90226,4.37699 1.30447,0.60124 2.61646,2.06725 4.18174,3.85068 0,0 0,1e-5 0,1e-5 1.86746,2.41763 4.39188,4.68284 7.6095,6.33447 0,0 1e-5,0 1e-5,0 6.07815,3.0195 11.8025,4.8787 15.85225,8.12867 4.95105,2.42507 9.01137,7.10281 11.57736,12.47144 1.83438,3.32564 1.9872,7.86676 1.95089,12.59865 -0.10902,3.75145 0.63193,7.61655 2.42405,11.0852 1.86404,3.50685 4.87702,6.27018 8.47025,7.79248 4.48449,1.67395 8.87665,3.98472 13.44113,6.12657 4.38079,1.534 8.75637,4.58586 14.00521,5.81144 0,0 0,0 0,0 2.44529,0.56829 4.84193,1.11209 7.10479,1.95171 2.16977,0.84285 4.30532,1.79919 5.54255,3.52676 1.84927,2.58122 3.8871,4.93355 5.49178,7.56089 1.58095,2.55187 2.71004,5.50375 2.52773,8.58333 -0.17752,0.33021 -0.15108,0.71217 -0.12393,1.06712 0.0408,0.56953 0.15521,1.1276 0.28605,1.68038 0,0 0,10e-6 0,10e-6 0.34675,1.46382 0.83268,2.8864 1.3622,4.29244 0.51043,1.354 1.06315,2.68848 1.70367,3.97013 0,0 0,1e-5 0,1e-5 0.2202,0.43947 0.44138,0.86588 0.6983,1.25101 0.0828,0.12212 0.15631,0.2284 0.23288,0.30426 0.0894,0.044 0.061,0.0612 -0.0751,-0.0164 z"
       inkscape:connector-curvature="0"
       sodipodi:nodetypes="cccccccccccc" />
  </g>
</svg>
